<?xml version="1.0" encoding="iso-8859-1"?>
<!-- Uploaded to: SVG Repo, www.svgrepo.com, Generator: SVG Repo Mixer Tools -->
<svg fill="#ffffff" height="800px" width="800px" version="1.1" id="Layer_1" xmlns="http://www.w3.org/2000/svg" xmlns:xlink="http://www.w3.org/1999/xlink" 
	 viewBox="0 0 512 512" xml:space="preserve">
<g>
	<g>
		<g>
			<path d="M471.442,89.775V60.451l-40.559,13.798V37.576l-150.909,87.742h-47.948L81.117,37.576v36.673L40.559,60.451v29.324
				L0,82.194v349.371l141.305,26.416l2.795-14.948L15.208,418.936V100.508l207.165,38.727v318.428l-58.34-10.905l-2.794,14.948
				l68.033,12.718h53.455L512,431.564V82.194L471.442,89.775z M55.766,92.618V81.69l25.351,8.624l45.964,15.636L55.766,92.618z
				 M138.825,93.881l-42.5-14.459V64.009l63.894,37.149L138.825,93.881z M456.234,81.69v10.928l-71.315,13.331l45.964-15.636
				L456.234,81.69z M415.675,64.009v15.413l-42.5,14.459l-21.393,7.277L415.675,64.009z M496.792,418.936l-207.165,38.726v-44.24
				h-15.208v45.794h-36.838V140.525h36.838v252.619h15.208V139.236l207.165-38.727V418.936z"/>
			<path d="M207.165,151.864l-176.75-33.042v287.485l176.75,33.042V151.864z M191.957,421.034L45.624,393.679V137.137
				l146.334,27.354V421.034z"/>
			<path d="M481.584,118.823l-176.75,33.042V439.35l176.75-33.043V118.823z M466.376,393.679l-146.334,27.354V164.492
				l146.334-27.355V393.679z"/>
			<path d="M111.185,267.47v114.478h15.208V267.47c6.945-1.26,12.95-4.297,17.624-8.97c6.306-6.306,9.64-15.028,9.64-25.227
				l0.001-57.051H138.45l-0.001,57.051c0,6.076-1.794,11.082-5.185,14.472c-1.84,1.84-4.168,3.191-6.87,4.059v-75.579h-15.208
				v75.578c-2.701-0.868-5.028-2.218-6.867-4.057c-3.392-3.392-5.186-8.396-5.185-14.472v-57.05H83.926v57.05
				c-0.002,10.197,3.331,18.921,9.638,25.227C98.238,263.173,104.241,266.21,111.185,267.47z"/>
			<path d="M385.606,267.066v114.882h15.208V267.066c15.538-3.48,27.189-17.375,27.188-33.945l0.001-29.713
				c-0.004-19.181-15.612-34.789-34.794-34.789c-19.185,0-34.793,15.608-34.793,34.792v29.71
				C358.416,249.694,370.068,263.588,385.606,267.066z M373.624,203.411c0-10.799,8.786-19.584,19.585-19.584
				c10.798,0,19.584,8.786,19.586,19.583l-0.001,29.711c0,10.799-8.785,19.584-19.584,19.585
				c-10.8-0.001-19.586-8.787-19.586-19.585V203.411z"/>
		</g>
	</g>
</g>
</svg>